<svg viewBox="0 0 102 44" version="1.1" xmlns="http://www.w3.org/2000/svg" data-name="Camada 1" id="Camada_1">
  <defs>
    <style>
      .cls-1 {
        fill-opacity: .6;
      }

      .cls-1, .cls-2, .cls-3, .cls-4, .cls-5, .cls-6 {
        stroke-width: 0px;
      }

      .cls-3 {
        fill: #5e8e3e;
      }

      .cls-4 {
        fill: #95bf47;
      }

      .cls-5 {
        fill: #d2d0cc;
      }

      .cls-6 {
        fill: #fff;
      }
    </style>
  </defs>
  <path d="M50,16.2c-.6-.3-.8-.6-.8-.9s.4-.7,1-.7,1.4.3,1.4.3l.5-1.6s-.5-.4-1.8-.4-3.2,1.1-3.2,2.6.6,1.5,1.4,2c.7.4.9.7.9,1s-.3.7-1,.7c-.9,0-1.8-.5-1.8-.5l-.5,1.6s.8.5,2.2.5c2,0,3.4-1,3.4-2.7s-.7-1.6-1.6-2.1ZM57.8,12.9c-1,0-1.7.5-2.3,1.2h0s.8-4.4.8-4.4h-2.2l-2.1,11.2h2.2l.7-3.8c.3-1.4,1-2.3,1.7-2.3s.7.3.7.8,0,.7,0,1l-.8,4.4h2.2l.9-4.5c0-.5.1-1,.2-1.4,0-1.2-.7-2-1.8-2ZM64.6,12.9c-2.6,0-4.4,2.4-4.4,5s1,3.1,3,3.1,4.3-2.3,4.3-5-.9-3.1-3-3.1ZM63.5,19.4c-.7,0-1.1-.6-1.1-1.4,0-1.3.7-3.3,1.8-3.3s1,.7,1,1.3c0,1.4-.7,3.4-1.8,3.4ZM73.2,12.9c-1.5,0-2.3,1.3-2.3,1.3h0v-1.2c.1,0-1.8,0-1.8,0-.1,1-.3,1.9-.4,2.9l-1.5,8h2.2l.6-3.2h0s.4.3,1.3.3c2.6,0,4.3-2.6,4.3-5.3s-.7-2.8-2.3-2.8ZM71.1,19.4c-.6,0-.9-.3-.9-.3l.4-2.1c.3-1.4,1-2.3,1.7-2.3s.9.6.9,1.2c0,1.4-.8,3.4-2.1,3.4h0ZM78.6,9.8c-.7,0-1.3.6-1.3,1.3s.4,1.1,1,1.1h0c.7,0,1.3-.5,1.3-1.3,0-.6-.4-1.1-1.1-1.1ZM75.5,20.9h2.2l1.5-7.8h-2.2l-1.5,7.8ZM84.8,13.1h-1.5v-.4c.2-.7.7-1.4,1.4-1.4s.7.1.7.1l.4-1.7s-.4-.2-1.2-.2-1.6.2-2.1.7c-.7.6-1.1,1.6-1.3,2.5v.4h-1.1l-.3,1.7h1l-1.2,6.1h2.2l1.2-6.1h1.5s.3-1.7.3-1.7ZM90.1,13.1s-1.4,3.5-2,5.3h0c0-.6-.5-5.3-.5-5.3h-2.3l1.3,7.1c0,.2,0,.3,0,.4-.3.5-.7,1-1.2,1.3-.4.3-.9.5-1.2.6l.6,1.9c.4,0,1.4-.5,2.1-1.2,1-.9,1.9-2.4,2.9-4.4l2.7-5.8h-2.3Z" class="cls-2"></path>
  <path d="M57,32c0-1.2-.8-1.7-2.1-2-1-.2-1.2-.5-1.2-1s.3-.8,1-.8,1,.3,1.1.9l1.1-.2c-.1-1-.9-1.6-2.2-1.6s-2.1.7-2.1,1.8.7,1.6,2,1.9c.9.2,1.3.5,1.3,1s-.4.9-1.1.9-1.1-.5-1.2-1.1l-1.2.2c.1,1,.9,1.9,2.4,1.9s2.3-.8,2.3-1.9ZM58.5,33.8h4v-1h-2.8v-1.9h2.1v-.9h-2.1v-1.7h2.6v-1h-3.8v6.4h0ZM68.9,31.8l-1.1-.2c-.1.7-.6,1.3-1.4,1.3s-1.5-.7-1.5-2v-.7c0-1.3.6-2,1.5-2s1.1.5,1.2,1.2l1.2-.2c-.2-1.1-1-2-2.5-2s-2.8,1.1-2.8,3v.7c0,1.8,1,3,2.8,3s2.4-1.2,2.5-2.1ZM73.9,27.4v4c0,1.1-.4,1.5-1.2,1.5s-1.2-.4-1.2-1.5v-4.1h-1.2v4.1c0,1.6.9,2.4,2.4,2.4s2.5-.8,2.5-2.4v-4.1h-1.2ZM76.9,33.8h1.2v-2.6h.8l1.5,2.6h1.3l-1.6-2.8c.7-.2,1.3-.7,1.3-1.6h0c0-1.4-.9-2-2.3-2h-2.2v6.4ZM78.1,30.3v-2h1c.7,0,1.1.2,1.1.9h0c0,.8-.4,1.1-1.1,1.1,0,0-1,0-1,0ZM83.1,33.8h4v-1h-2.8v-1.9h2.1v-.9h-2.1v-1.7h2.6v-1h-3.8v6.4Z" class="cls-1"></path>
  <path d="M29.3,14.8c0-.1-.1-.2-.2-.2,0,0-1.9,0-1.9,0,0,0-1.5-1.4-1.6-1.6-.1-.1-.4-.1-.5,0l-.7.2c0-.3-.2-.6-.4-.9-.5-1-1.3-1.5-2.2-1.5h0c0,0-.1,0-.2,0,0,0,0,0,0,0-.4-.4-.9-.6-1.6-.6-1.2,0-2.4.9-3.4,2.5-.7,1.1-1.2,2.5-1.4,3.5l-2.4.7c-.7.2-.7.2-.8.9,0,.5-1.9,14.7-1.9,14.7l15.3,2.7,6.7-1.7s-2.7-18.4-2.7-18.5h0ZM23.5,13.4l-1.2.4c0-.6,0-1.5-.4-2.2.9.2,1.4,1.2,1.6,1.8ZM21.5,14l-2.6.8c.2-.9.7-1.9,1.3-2.5.2-.2.5-.5.9-.6.3.7.4,1.7.4,2.4ZM19.9,10.8c.3,0,.5,0,.7.2-.3.2-.6.4-.9.7-.8.8-1.4,2.1-1.6,3.3l-2.1.7c.4-1.9,2-4.9,3.9-4.9Z" class="cls-4"></path>
  <path d="M29,14.6c-.6,0-1.2,0-1.9,0,0,0-1.5-1.4-1.6-1.6,0,0-.1,0-.2,0v22s6.7-1.7,6.7-1.7c0,0-2.7-18.3-2.7-18.5,0-.1-.1-.2-.2-.2h0Z" class="cls-3"></path>
  <path d="M21.7,18l-.8,2.9s-.9-.4-1.9-.3c-1.5,0-1.5,1-1.5,1.3,0,1.3,3.5,1.6,3.7,4.6.1,2.4-1.3,4-3.3,4.1-2.4.2-3.8-1.3-3.8-1.3l.5-2.2s1.4,1,2.4,1c.7,0,1-.6.9-1-.1-1.7-2.9-1.6-3.1-4.4-.1-2.3,1.4-4.7,4.8-4.9,1.3,0,2,.2,2,.2h0Z" class="cls-6"></path>
  <path d="M39,8h1v28h-1V8Z" class="cls-5"></path>
</svg>