<svg version="1.1" viewBox="0 0 117 30" height="30" width="117" xmlns:xlink="http://www.w3.org/1999/xlink" xmlns="http://www.w3.org/2000/svg">
    
    <title>compra</title>
    <desc>Created with Sketch.</desc>
    <g fill-rule="evenodd" fill="none" stroke-width="1" stroke="none" id="Symbols">
        <g fill-rule="nonzero" transform="translate(-391.000000, -1315.000000)" id="Footer">
            <g id="Selos">
                <g transform="translate(0.000000, 571.000000)">
                    <g transform="translate(0.000000, 581.000000)">
                        <g transform="translate(0.000000, 75.000000)" id="Group-10">
                            <g transform="translate(391.000000, 38.000000)" id="Group-37">
                                <g transform="translate(0.000000, 50.000000)" id="compra">
                                    <path fill="#43BF60" id="Shape" d="M24.5899985,4.85776967 L13.1056151,0.0895825865 C12.8179195,-0.0298315635 12.4945404,-0.0298901573 12.2069035,0.0895825865 L0.72252006,4.85776967 C0.285117396,5.03941043 0,5.46644199 0,5.94005562 L0,11.7364466 C0,19.7176829 4.82396838,26.8970046 12.2134074,29.9131201 C12.4972357,30.02896 12.8152242,30.02896 13.0991112,29.9131201 C20.488433,26.8970632 25.3125185,19.7177415 25.3125185,11.7364466 L25.3125185,5.94005562 C25.3125185,5.46644199 25.0274597,5.03941043 24.5899985,4.85776967 Z M22.9687668,11.7364466 C22.9687668,18.5213148 18.9843889,24.7672374 12.6562593,27.5552472 C6.49723132,24.8417101 2.34375172,18.7051822 2.34375172,11.7364466 L2.34375172,6.72239994 L12.6562593,2.44071712 L22.9687668,6.72239994 L22.9687668,11.7364466 Z M11.3609849,15.6864885 L16.3979417,10.6495903 C16.8555592,10.1919728 17.5975324,10.1919142 18.0552085,10.6495903 C18.5128847,11.1072664 18.5128261,11.8492396 18.0551499,12.3068572 L12.1896183,18.1723888 C11.7318836,18.6301235 10.9899104,18.6299477 10.5323515,18.1723888 L7.25731,14.8973473 C6.79963389,14.4396712 6.79963389,13.697698 7.25731,13.2400805 C7.71498612,12.782463 8.45695932,12.7824044 8.91457684,13.2400805 L11.3609849,15.6864885 Z"></path>
                                    <path fill="#000000" id="COMPRASEGURA" d="M35.944,4.544 C35.7199989,4.32533224 35.4613348,4.15466728 35.168,4.032 C34.8746652,3.90933272 34.5706682,3.848 34.256,3.848 C33.8239978,3.848 33.4280018,3.95199896 33.068,4.16 C32.7079982,4.36800104 32.4226677,4.6519982 32.212,5.012 C32.0013323,5.3720018 31.896,5.7653312 31.896,6.192 C31.896,6.6186688 32.0013323,7.01066488 32.212,7.368 C32.4226677,7.72533512 32.7079982,8.00933228 33.068,8.22 C33.4280018,8.43066772 33.8239978,8.536 34.256,8.536 C34.5653349,8.536 34.8666652,8.4760006 35.16,8.356 C35.4533348,8.2359994 35.7146655,8.0693344 35.944,7.856 L36.28,8.216 C36.0026653,8.47200128 35.6853351,8.67466592 35.328,8.824 C34.9706649,8.97333408 34.6053352,9.048 34.232,9.048 C33.7039974,9.048 33.2186689,8.92000128 32.776,8.664 C32.3333311,8.40799872 31.982668,8.06133552 31.724,7.624 C31.465332,7.18666448 31.336,6.70933592 31.336,6.192 C31.336,5.67466408 31.4666654,5.20000216 31.728,4.768 C31.9893346,4.33599784 32.3426644,3.9933346 32.788,3.74 C33.2333356,3.4866654 33.7199974,3.36 34.248,3.36 C34.6266686,3.36 34.9919982,3.43066596 35.344,3.572 C35.6960018,3.71333404 36.005332,3.90933208 36.272,4.16 L35.944,4.544 Z M39.72,3.36 C40.253336,3.36 40.7426644,3.4866654 41.188,3.74 C41.6333356,3.9933346 41.9866654,4.33599784 42.248,4.768 C42.5093346,5.20000216 42.64,5.67466408 42.64,6.192 C42.64,6.70933592 42.5093346,7.18666448 42.248,7.624 C41.9866654,8.06133552 41.6333356,8.40799872 41.188,8.664 C40.7426644,8.92000128 40.253336,9.048 39.72,9.048 C39.186664,9.048 38.6973356,8.92000128 38.252,8.664 C37.8066644,8.40799872 37.4533346,8.06133552 37.192,7.624 C36.9306654,7.18666448 36.8,6.70933592 36.8,6.192 C36.8,5.67466408 36.9306654,5.20000216 37.192,4.768 C37.4533346,4.33599784 37.8066644,3.9933346 38.252,3.74 C38.6973356,3.4866654 39.186664,3.36 39.72,3.36 Z M39.728,3.856 C39.3013312,3.856 38.9066685,3.95999896 38.544,4.168 C38.1813315,4.37600104 37.8933344,4.65866488 37.68,5.016 C37.4666656,5.37333512 37.36,5.7653312 37.36,6.192 C37.36,6.6186688 37.4666656,7.01333152 37.68,7.376 C37.8933344,7.73866848 38.1813315,8.02533228 38.544,8.236 C38.9066685,8.44666772 39.3013312,8.552 39.728,8.552 C40.1493354,8.552 40.5399982,8.44666772 40.9,8.236 C41.2600018,8.02533228 41.5466656,7.73866848 41.76,7.376 C41.9733344,7.01333152 42.08,6.6186688 42.08,6.192 C42.08,5.7653312 41.9733344,5.37333512 41.76,5.016 C41.5466656,4.65866488 41.2600018,4.37600104 40.9,4.168 C40.5399982,3.95999896 40.1493354,3.856 39.728,3.856 Z M43.856,3.4 L44.544,3.4 L46.736,7.6 L48.904,3.4 L49.592,3.4 L49.592,9 L49.08,9 L49.072,4.168 L46.88,8.4 L46.576,8.4 L44.376,4.168 L44.376,9 L43.856,9 L43.856,3.4 Z M53.416,3.408 C54.1093368,3.408 54.6453314,3.56933172 55.024,3.892 C55.4026686,4.21466828 55.592,4.67199704 55.592,5.264 C55.592,5.8773364 55.4026686,6.35199832 55.024,6.688 C54.6453314,7.02400168 54.1093368,7.192 53.416,7.192 L51.904,7.192 L51.904,9 L51.352,9 L51.352,3.408 L53.416,3.408 Z M53.392,6.696 C53.925336,6.696 54.3373319,6.57466788 54.628,6.332 C54.9186681,6.08933212 55.064,5.73866896 55.064,5.28 C55.064,4.83199776 54.9200014,4.49066784 54.632,4.256 C54.3439986,4.02133216 53.9306694,3.904 53.392,3.904 L51.904,3.904 L51.904,6.696 L53.392,6.696 Z M60.384,9 L59.176,7.176 C59.0053325,7.18666672 58.8746671,7.192 58.784,7.192 L57.248,7.192 L57.248,9 L56.696,9 L56.696,3.408 L58.784,3.408 C59.4826702,3.408 60.0226648,3.56933172 60.404,3.892 C60.7853352,4.21466828 60.976,4.67199704 60.976,5.264 C60.976,5.72800232 60.8640011,6.11466512 60.64,6.424 C60.4159989,6.73333488 60.0960021,6.94933272 59.68,7.072 L61.024,9 L60.384,9 Z M58.784,6.696 C59.317336,6.696 59.7279986,6.57466788 60.016,6.332 C60.3040014,6.08933212 60.448,5.73866896 60.448,5.28 C60.448,4.83199776 60.3040014,4.49066784 60.016,4.256 C59.7279986,4.02133216 59.317336,3.904 58.784,3.904 L57.248,3.904 L57.248,6.696 L58.784,6.696 Z M66.656,9 L65.992,7.512 L62.888,7.512 L62.232,9 L61.64,9 L64.16,3.408 L64.736,3.408 L67.256,9 L66.656,9 Z M63.104,7.016 L65.776,7.016 L64.432,3.992 L63.104,7.016 Z M73.48,4.32 C73.2506655,4.17599928 73.0000014,4.06533372 72.728,3.988 C72.4559986,3.91066628 72.2000012,3.872 71.96,3.872 C71.5759981,3.872 71.268,3.94799924 71.036,4.1 C70.8039988,4.25200076 70.688,4.45866536 70.688,4.72 C70.688,4.94933448 70.7519994,5.13599928 70.88,5.28 C71.0080006,5.42400072 71.1653324,5.53733292 71.352,5.62 C71.5386676,5.70266708 71.794665,5.79466616 72.12,5.896 C72.4986686,6.00800056 72.8039988,6.11866612 73.036,6.228 C73.268,6.33733388 73.4653325,6.49599896 73.628,6.704 C73.7906675,6.91200104 73.872,7.18666496 73.872,7.528 C73.872,7.82666816 73.7880008,8.09066552 73.62,8.32 C73.4519992,8.54933448 73.2160015,8.72666604 72.912,8.852 C72.6079985,8.97733396 72.2586686,9.04 71.864,9.04 C71.4746647,9.04 71.0946685,8.96266744 70.724,8.808 C70.3533315,8.65333256 70.034668,8.44800128 69.768,8.192 L70.024,7.736 C70.2746679,7.98133456 70.5653317,8.17333264 70.896,8.312 C71.2266683,8.45066736 71.5519984,8.52 71.872,8.52 C72.2986688,8.52 72.6373321,8.4333342 72.888,8.26 C73.1386679,8.0866658 73.264,7.8533348 73.264,7.56 C73.264,7.32533216 73.2000006,7.13333408 73.072,6.984 C72.9439994,6.83466592 72.7866676,6.7200004 72.6,6.64 C72.4133324,6.5599996 72.1520017,6.4666672 71.816,6.36 C71.4373314,6.24266608 71.1333345,6.13200052 70.904,6.028 C70.6746655,5.92399948 70.4800008,5.76933436 70.32,5.564 C70.1599992,5.35866564 70.08,5.09066832 70.08,4.76 C70.08,4.47733192 70.1599992,4.2293344 70.32,4.016 C70.4800008,3.8026656 70.7039986,3.63866724 70.992,3.524 C71.2800014,3.40933276 71.6133314,3.352 71.992,3.352 C72.2960015,3.352 72.6013318,3.39733288 72.908,3.488 C73.2146682,3.57866712 73.4853322,3.69866592 73.72,3.848 L73.48,4.32 Z M75.24,3.408 L78.984,3.408 L78.984,3.904 L75.792,3.904 L75.792,5.904 L78.648,5.904 L78.648,6.4 L75.792,6.4 L75.792,8.504 L79.088,8.504 L79.088,9 L75.24,9 L75.24,3.408 Z M84.368,6.264 L84.856,6.264 L84.856,8.312 C84.5839986,8.54133448 84.2680018,8.72133268 83.908,8.852 C83.5479982,8.98266732 83.1813352,9.048 82.808,9.048 C82.2799974,9.048 81.7933356,8.92000128 81.348,8.664 C80.9026644,8.40799872 80.5493346,8.06133552 80.288,7.624 C80.0266654,7.18666448 79.896,6.70933592 79.896,6.192 C79.896,5.67466408 80.0266654,5.20000216 80.288,4.768 C80.5493346,4.33599784 80.9053311,3.9933346 81.356,3.74 C81.8066689,3.4866654 82.298664,3.36 82.832,3.36 C83.2106686,3.36 83.5773316,3.426666 83.932,3.56 C84.2866684,3.693334 84.5999986,3.8799988 84.872,4.12 L84.552,4.512 C84.3226655,4.2986656 84.0586682,4.13466724 83.76,4.02 C83.4613318,3.90533276 83.1520016,3.848 82.832,3.848 C82.3999978,3.848 82.0026685,3.95333228 81.64,4.164 C81.2773315,4.37466772 80.9893344,4.65866488 80.776,5.016 C80.5626656,5.37333512 80.456,5.7653312 80.456,6.192 C80.456,6.62400216 80.5626656,7.0199982 80.776,7.38 C80.9893344,7.7400018 81.2786648,8.02533228 81.644,8.236 C82.0093352,8.44666772 82.4079978,8.552 82.84,8.552 C83.106668,8.552 83.3719987,8.50800044 83.636,8.42 C83.9000013,8.33199956 84.1439989,8.2080008 84.368,8.048 L84.368,6.264 Z M86.904,6.728 C86.904,7.30400288 87.0599984,7.7519984 87.372,8.072 C87.6840016,8.3920016 88.1173306,8.552 88.672,8.552 C89.2266694,8.552 89.6586651,8.3920016 89.968,8.072 C90.2773349,7.7519984 90.432,7.30400288 90.432,6.728 L90.432,3.4 L90.984,3.4 L90.984,6.728 C90.984,7.45333696 90.780002,8.02133128 90.372,8.432 C89.963998,8.84266872 89.397337,9.048 88.672,9.048 C87.946663,9.048 87.3786687,8.84266872 86.968,8.432 C86.5573313,8.02133128 86.352,7.45333696 86.352,6.728 L86.352,3.4 L86.904,3.4 L86.904,6.728 Z M96.304,9 L95.096,7.176 C94.9253325,7.18666672 94.7946671,7.192 94.704,7.192 L93.168,7.192 L93.168,9 L92.616,9 L92.616,3.408 L94.704,3.408 C95.4026702,3.408 95.9426648,3.56933172 96.324,3.892 C96.7053352,4.21466828 96.896,4.67199704 96.896,5.264 C96.896,5.72800232 96.7840011,6.11466512 96.56,6.424 C96.3359989,6.73333488 96.0160021,6.94933272 95.6,7.072 L96.944,9 L96.304,9 Z M94.704,6.696 C95.237336,6.696 95.6479986,6.57466788 95.936,6.332 C96.2240014,6.08933212 96.368,5.73866896 96.368,5.28 C96.368,4.83199776 96.2240014,4.49066784 95.936,4.256 C95.6479986,4.02133216 95.237336,3.904 94.704,3.904 L93.168,3.904 L93.168,6.696 L94.704,6.696 Z M102.576,9 L101.912,7.512 L98.808,7.512 L98.152,9 L97.56,9 L100.08,3.408 L100.656,3.408 L103.176,9 L102.576,9 Z M99.024,7.016 L101.696,7.016 L100.352,3.992 L99.024,7.016 Z"></path>
                                    <path fill="#000000" id="CERTIFICADOSSL" d="M35.944,23.544 C35.7199989,23.3253322 35.4613348,23.1546673 35.168,23.032 C34.8746652,22.9093327 34.5706682,22.848 34.256,22.848 C33.8239978,22.848 33.4280018,22.951999 33.068,23.16 C32.7079982,23.368001 32.4226677,23.6519982 32.212,24.012 C32.0013323,24.3720018 31.896,24.7653312 31.896,25.192 C31.896,25.6186688 32.0013323,26.0106649 32.212,26.368 C32.4226677,26.7253351 32.7079982,27.0093323 33.068,27.22 C33.4280018,27.4306677 33.8239978,27.536 34.256,27.536 C34.5653349,27.536 34.8666652,27.4760006 35.16,27.356 C35.4533348,27.2359994 35.7146655,27.0693344 35.944,26.856 L36.28,27.216 C36.0026653,27.4720013 35.6853351,27.6746659 35.328,27.824 C34.9706649,27.9733341 34.6053352,28.048 34.232,28.048 C33.7039974,28.048 33.2186689,27.9200013 32.776,27.664 C32.3333311,27.4079987 31.982668,27.0613355 31.724,26.624 C31.465332,26.1866645 31.336,25.7093359 31.336,25.192 C31.336,24.6746641 31.4666654,24.2000022 31.728,23.768 C31.9893346,23.3359978 32.3426644,22.9933346 32.788,22.74 C33.2333356,22.4866654 33.7199974,22.36 34.248,22.36 C34.6266686,22.36 34.9919982,22.430666 35.344,22.572 C35.6960018,22.713334 36.005332,22.9093321 36.272,23.16 L35.944,23.544 Z M37.488,22.408 L41.232,22.408 L41.232,22.904 L38.04,22.904 L38.04,24.904 L40.896,24.904 L40.896,25.4 L38.04,25.4 L38.04,27.504 L41.336,27.504 L41.336,28 L37.488,28 L37.488,22.408 Z M46.376,28 L45.168,26.176 C44.9973325,26.1866667 44.8666671,26.192 44.776,26.192 L43.24,26.192 L43.24,28 L42.688,28 L42.688,22.408 L44.776,22.408 C45.4746702,22.408 46.0146648,22.5693317 46.396,22.892 C46.7773352,23.2146683 46.968,23.671997 46.968,24.264 C46.968,24.7280023 46.8560011,25.1146651 46.632,25.424 C46.4079989,25.7333349 46.0880021,25.9493327 45.672,26.072 L47.016,28 L46.376,28 Z M44.776,25.696 C45.309336,25.696 45.7199986,25.5746679 46.008,25.332 C46.2960014,25.0893321 46.44,24.738669 46.44,24.28 C46.44,23.8319978 46.2960014,23.4906678 46.008,23.256 C45.7199986,23.0213322 45.309336,22.904 44.776,22.904 L43.24,22.904 L43.24,25.696 L44.776,25.696 Z M47.68,22.4 L51.928,22.4 L51.928,22.904 L50.08,22.904 L50.08,28 L49.528,28 L49.528,22.904 L47.68,22.904 L47.68,22.4 Z M52.896,22.408 L53.448,22.408 L53.448,28 L52.896,28 L52.896,22.408 Z M55.208,22.408 L58.712,22.408 L58.712,22.904 L55.76,22.904 L55.76,25.056 L58.392,25.056 L58.392,25.552 L55.76,25.552 L55.76,28 L55.208,28 L55.208,22.408 Z M59.688,22.408 L60.24,22.408 L60.24,28 L59.688,28 L59.688,22.408 Z M66.064,23.544 C65.8399989,23.3253322 65.5813348,23.1546673 65.288,23.032 C64.9946652,22.9093327 64.6906682,22.848 64.376,22.848 C63.9439978,22.848 63.5480018,22.951999 63.188,23.16 C62.8279982,23.368001 62.5426677,23.6519982 62.332,24.012 C62.1213323,24.3720018 62.016,24.7653312 62.016,25.192 C62.016,25.6186688 62.1213323,26.0106649 62.332,26.368 C62.5426677,26.7253351 62.8279982,27.0093323 63.188,27.22 C63.5480018,27.4306677 63.9439978,27.536 64.376,27.536 C64.6853349,27.536 64.9866652,27.4760006 65.28,27.356 C65.5733348,27.2359994 65.8346655,27.0693344 66.064,26.856 L66.4,27.216 C66.1226653,27.4720013 65.8053351,27.6746659 65.448,27.824 C65.0906649,27.9733341 64.7253352,28.048 64.352,28.048 C63.8239974,28.048 63.3386689,27.9200013 62.896,27.664 C62.4533311,27.4079987 62.102668,27.0613355 61.844,26.624 C61.585332,26.1866645 61.456,25.7093359 61.456,25.192 C61.456,24.6746641 61.5866654,24.2000022 61.848,23.768 C62.1093346,23.3359978 62.4626644,22.9933346 62.908,22.74 C63.3533356,22.4866654 63.8399974,22.36 64.368,22.36 C64.7466686,22.36 65.1119982,22.430666 65.464,22.572 C65.8160018,22.713334 66.125332,22.9093321 66.392,23.16 L66.064,23.544 Z M71.76,28 L71.096,26.512 L67.992,26.512 L67.336,28 L66.744,28 L69.264,22.408 L69.84,22.408 L72.36,28 L71.76,28 Z M68.208,26.016 L70.88,26.016 L69.536,22.992 L68.208,26.016 Z M75.528,22.408 C76.061336,22.408 76.5479978,22.5306654 76.988,22.776 C77.4280022,23.0213346 77.7746654,23.3586645 78.028,23.788 C78.2813346,24.2173355 78.408,24.6906641 78.408,25.208 C78.408,25.7253359 78.2813346,26.1973312 78.028,26.624 C77.7746654,27.0506688 77.4266689,27.3866654 76.984,27.632 C76.5413311,27.8773346 76.0506694,28 75.512,28 L73.28,28 L73.28,22.408 L75.528,22.408 Z M75.544,27.504 C75.9653354,27.504 76.3519982,27.4026677 76.704,27.2 C77.0560018,26.9973323 77.3346656,26.7213351 77.54,26.372 C77.7453344,26.0226649 77.848,25.6346688 77.848,25.208 C77.848,24.7813312 77.744001,24.3920018 77.536,24.04 C77.327999,23.6879982 77.0466684,23.4106677 76.692,23.208 C76.3373316,23.0053323 75.9466688,22.904 75.52,22.904 L73.832,22.904 L73.832,27.504 L75.544,27.504 Z M81.888,22.36 C82.421336,22.36 82.9106644,22.4866654 83.356,22.74 C83.8013356,22.9933346 84.1546654,23.3359978 84.416,23.768 C84.6773346,24.2000022 84.808,24.6746641 84.808,25.192 C84.808,25.7093359 84.6773346,26.1866645 84.416,26.624 C84.1546654,27.0613355 83.8013356,27.4079987 83.356,27.664 C82.9106644,27.9200013 82.421336,28.048 81.888,28.048 C81.354664,28.048 80.8653356,27.9200013 80.42,27.664 C79.9746644,27.4079987 79.6213346,27.0613355 79.36,26.624 C79.0986654,26.1866645 78.968,25.7093359 78.968,25.192 C78.968,24.6746641 79.0986654,24.2000022 79.36,23.768 C79.6213346,23.3359978 79.9746644,22.9933346 80.42,22.74 C80.8653356,22.4866654 81.354664,22.36 81.888,22.36 Z M81.896,22.856 C81.4693312,22.856 81.0746685,22.959999 80.712,23.168 C80.3493315,23.376001 80.0613344,23.6586649 79.848,24.016 C79.6346656,24.3733351 79.528,24.7653312 79.528,25.192 C79.528,25.6186688 79.6346656,26.0133315 79.848,26.376 C80.0613344,26.7386685 80.3493315,27.0253323 80.712,27.236 C81.0746685,27.4466677 81.4693312,27.552 81.896,27.552 C82.3173354,27.552 82.7079982,27.4466677 83.068,27.236 C83.4280018,27.0253323 83.7146656,26.7386685 83.928,26.376 C84.1413344,26.0133315 84.248,25.6186688 84.248,25.192 C84.248,24.7653312 84.1413344,24.3733351 83.928,24.016 C83.7146656,23.6586649 83.4280018,23.376001 83.068,23.168 C82.7079982,22.959999 82.3173354,22.856 81.896,22.856 Z M91.328,23.32 C91.0986655,23.1759993 90.8480014,23.0653337 90.576,22.988 C90.3039986,22.9106663 90.0480012,22.872 89.808,22.872 C89.4239981,22.872 89.116,22.9479992 88.884,23.1 C88.6519988,23.2520008 88.536,23.4586654 88.536,23.72 C88.536,23.9493345 88.5999994,24.1359993 88.728,24.28 C88.8560006,24.4240007 89.0133324,24.5373329 89.2,24.62 C89.3866676,24.7026671 89.642665,24.7946662 89.968,24.896 C90.3466686,25.0080006 90.6519988,25.1186661 90.884,25.228 C91.116,25.3373339 91.3133325,25.495999 91.476,25.704 C91.6386675,25.912001 91.72,26.186665 91.72,26.528 C91.72,26.8266682 91.6360008,27.0906655 91.468,27.32 C91.2999992,27.5493345 91.0640015,27.726666 90.76,27.852 C90.4559985,27.977334 90.1066686,28.04 89.712,28.04 C89.3226647,28.04 88.9426685,27.9626674 88.572,27.808 C88.2013315,27.6533326 87.882668,27.4480013 87.616,27.192 L87.872,26.736 C88.1226679,26.9813346 88.4133317,27.1733326 88.744,27.312 C89.0746683,27.4506674 89.3999984,27.52 89.72,27.52 C90.1466688,27.52 90.4853321,27.4333342 90.736,27.26 C90.9866679,27.0866658 91.112,26.8533348 91.112,26.56 C91.112,26.3253322 91.0480006,26.1333341 90.92,25.984 C90.7919994,25.8346659 90.6346676,25.7200004 90.448,25.64 C90.2613324,25.5599996 90.0000017,25.4666672 89.664,25.36 C89.2853314,25.2426661 88.9813345,25.1320005 88.752,25.028 C88.5226655,24.9239995 88.3280008,24.7693344 88.168,24.564 C88.0079992,24.3586656 87.928,24.0906683 87.928,23.76 C87.928,23.4773319 88.0079992,23.2293344 88.168,23.016 C88.3280008,22.8026656 88.5519986,22.6386672 88.84,22.524 C89.1280014,22.4093328 89.4613314,22.352 89.84,22.352 C90.1440015,22.352 90.4493318,22.3973329 90.756,22.488 C91.0626682,22.5786671 91.3333322,22.6986659 91.568,22.848 L91.328,23.32 Z M96.192,23.32 C95.9626655,23.1759993 95.7120014,23.0653337 95.44,22.988 C95.1679986,22.9106663 94.9120012,22.872 94.672,22.872 C94.2879981,22.872 93.98,22.9479992 93.748,23.1 C93.5159988,23.2520008 93.4,23.4586654 93.4,23.72 C93.4,23.9493345 93.4639994,24.1359993 93.592,24.28 C93.7200006,24.4240007 93.8773324,24.5373329 94.064,24.62 C94.2506676,24.7026671 94.506665,24.7946662 94.832,24.896 C95.2106686,25.0080006 95.5159988,25.1186661 95.748,25.228 C95.98,25.3373339 96.1773325,25.495999 96.34,25.704 C96.5026675,25.912001 96.584,26.186665 96.584,26.528 C96.584,26.8266682 96.5000008,27.0906655 96.332,27.32 C96.1639992,27.5493345 95.9280015,27.726666 95.624,27.852 C95.3199985,27.977334 94.9706686,28.04 94.576,28.04 C94.1866647,28.04 93.8066685,27.9626674 93.436,27.808 C93.0653315,27.6533326 92.746668,27.4480013 92.48,27.192 L92.736,26.736 C92.9866679,26.9813346 93.2773317,27.1733326 93.608,27.312 C93.9386683,27.4506674 94.2639984,27.52 94.584,27.52 C95.0106688,27.52 95.3493321,27.4333342 95.6,27.26 C95.8506679,27.0866658 95.976,26.8533348 95.976,26.56 C95.976,26.3253322 95.9120006,26.1333341 95.784,25.984 C95.6559994,25.8346659 95.4986676,25.7200004 95.312,25.64 C95.1253324,25.5599996 94.8640017,25.4666672 94.528,25.36 C94.1493314,25.2426661 93.8453345,25.1320005 93.616,25.028 C93.3866655,24.9239995 93.1920008,24.7693344 93.032,24.564 C92.8719992,24.3586656 92.792,24.0906683 92.792,23.76 C92.792,23.4773319 92.8719992,23.2293344 93.032,23.016 C93.1920008,22.8026656 93.4159986,22.6386672 93.704,22.524 C93.9920014,22.4093328 94.3253314,22.352 94.704,22.352 C95.0080015,22.352 95.3133318,22.3973329 95.62,22.488 C95.9266682,22.5786671 96.1973322,22.6986659 96.432,22.848 L96.192,23.32 Z M97.952,22.408 L98.504,22.408 L98.504,27.504 L100.968,27.504 L100.968,28 L97.952,28 L97.952,22.408 Z"></path>
                                    <path fill="#000000" id="SITEPROTEGIDO" d="M36.63,14.25 C36.2566648,14.0299989 35.8466689,13.8433341 35.4,13.69 C34.9533311,13.5366659 34.5866681,13.46 34.3,13.46 C34.12,13.46 33.9783338,13.4949997 33.875,13.565 C33.7716662,13.6350003 33.72,13.736666 33.72,13.87 C33.72,14.0566676 33.819999,14.2016661 34.02,14.305 C34.220001,14.4083338 34.5366645,14.5199994 34.97,14.64 C35.4633358,14.7800007 35.8699984,14.9216659 36.19,15.065 C36.5100016,15.208334 36.7883322,15.4266652 37.025,15.72 C37.2616679,16.0133348 37.38,16.3999976 37.38,16.88 C37.38,17.3666691 37.2516679,17.7783316 36.995,18.115 C36.738332,18.4516683 36.3916689,18.7033325 35.955,18.87 C35.5183312,19.0366675 35.0300027,19.12 34.49,19.12 C33.889997,19.12 33.2883364,19.0183343 32.685,18.815 C32.0816637,18.6116656 31.5600022,18.3333351 31.12,17.98 L31.9,16.4 C32.2533351,16.7066682 32.6849974,16.964999 33.195,17.175 C33.7050026,17.385001 34.1433315,17.49 34.51,17.49 C34.7366678,17.49 34.9133327,17.4466671 35.04,17.36 C35.1666673,17.2733329 35.23,17.1500008 35.23,16.99 C35.23,16.7966657 35.1266677,16.6483339 34.92,16.545 C34.7133323,16.4416661 34.3933355,16.3333339 33.96,16.22 C33.4733309,16.0933327 33.0700016,15.9616673 32.75,15.825 C32.4299984,15.6883326 32.1533345,15.4766681 31.92,15.19 C31.6866655,14.9033319 31.57,14.526669 31.57,14.06 C31.57,13.6066644 31.6899988,13.2116684 31.93,12.875 C32.1700012,12.5383316 32.5083312,12.2800009 32.945,12.1 C33.3816688,11.9199991 33.8899971,11.83 34.47,11.83 C34.9966693,11.83 35.5199974,11.9049992 36.04,12.055 C36.5600026,12.2050007 37.0133314,12.4033321 37.4,12.65 L36.63,14.25 Z M38.14,11.99 L40.22,11.99 L40.22,19 L38.14,19 L38.14,11.99 Z M40.87,11.99 L47.03,11.99 L47.03,13.65 L44.99,13.65 L44.99,19 L42.9,19 L42.9,13.65 L40.87,13.65 L40.87,11.99 Z M47.68,11.99 L53.41,11.99 L53.41,13.59 L49.76,13.59 L49.76,14.69 L53.07,14.69 L53.07,16.29 L49.76,16.29 L49.76,17.4 L53.51,17.4 L53.51,19 L47.68,19 L47.68,11.99 Z M59.8,11.99 C60.7066712,11.99 61.4083308,12.2066645 61.905,12.64 C62.4016692,13.0733355 62.65,13.6866627 62.65,14.48 C62.65,15.3133375 62.4016692,15.9599977 61.905,16.42 C61.4083308,16.8800023 60.7066712,17.11 59.8,17.11 L58.7,17.12 L58.7,19 L56.62,19 L56.62,11.99 L59.8,11.99 Z M59.7,15.51 C60.0133349,15.51 60.2549992,15.4266675 60.425,15.26 C60.5950008,15.0933325 60.68,14.8533349 60.68,14.54 C60.68,14.2333318 60.5950008,13.9983341 60.425,13.835 C60.2549992,13.6716659 60.0133349,13.59 59.7,13.59 L58.7,13.59 L58.7,15.51 L59.7,15.51 Z M67.56,19 L66.63,17.11 L65.53,17.11 L65.53,19 L63.45,19 L63.45,11.99 L66.72,11.99 C67.6600047,11.99 68.3883307,12.2066645 68.905,12.64 C69.4216693,13.0733355 69.68,13.6866627 69.68,14.48 C69.68,14.9933359 69.5783344,15.4383314 69.375,15.815 C69.1716656,16.1916685 68.8800019,16.49 68.5,16.71 L69.92,19 L67.56,19 Z M65.53,15.51 L66.72,15.51 C67.0333349,15.51 67.2749991,15.4266675 67.445,15.26 C67.6150009,15.0933325 67.7,14.8533349 67.7,14.54 C67.7,14.2333318 67.6150009,13.9983341 67.445,13.835 C67.2749991,13.6716659 67.0333349,13.59 66.72,13.59 L65.53,13.59 L65.53,15.51 Z M74.12,11.86 C74.8400036,11.86 75.4916638,12.0166651 76.075,12.33 C76.6583363,12.6433349 77.1149984,13.0749973 77.445,13.625 C77.7750016,14.1750028 77.94,14.7933299 77.94,15.48 C77.94,16.1733368 77.7750016,16.7983305 77.445,17.355 C77.1149984,17.9116694 76.6583363,18.3483317 76.075,18.665 C75.4916638,18.9816682 74.8400036,19.14 74.12,19.14 C73.3933297,19.14 72.7400029,18.9816682 72.16,18.665 C71.5799971,18.3483317 71.1250017,17.9116694 70.795,17.355 C70.4649984,16.7983305 70.3,16.1733368 70.3,15.48 C70.3,14.7933299 70.4649984,14.1750028 70.795,13.625 C71.1250017,13.0749973 71.5799971,12.6433349 72.16,12.33 C72.7400029,12.0166651 73.3933297,11.86 74.12,11.86 Z M74.15,13.59 C73.8433318,13.59 73.5583347,13.6733325 73.295,13.84 C73.0316653,14.0066675 72.8216675,14.2349986 72.665,14.525 C72.5083326,14.8150015 72.43,15.1366649 72.43,15.49 C72.43,15.8433351 72.5083326,16.1666652 72.665,16.46 C72.8216675,16.7533348 73.0316653,16.9849992 73.295,17.155 C73.5583347,17.3250009 73.8433318,17.41 74.15,17.41 C74.4500015,17.41 74.7283321,17.3250009 74.985,17.155 C75.2416679,16.9849992 75.4433326,16.7550015 75.59,16.465 C75.7366674,16.1749985 75.81,15.8500018 75.81,15.49 C75.81,15.1366649 75.7366674,14.8150015 75.59,14.525 C75.4433326,14.2349986 75.2433346,14.0066675 74.99,13.84 C74.7366654,13.6733325 74.4566682,13.59 74.15,13.59 Z M77.92,11.99 L84.08,11.99 L84.08,13.65 L82.04,13.65 L82.04,19 L79.95,19 L79.95,13.65 L77.92,13.65 L77.92,11.99 Z M84.73,11.99 L90.46,11.99 L90.46,13.59 L86.81,13.59 L86.81,14.69 L90.12,14.69 L90.12,16.29 L86.81,16.29 L86.81,17.4 L90.56,17.4 L90.56,19 L84.73,19 L84.73,11.99 Z M96.14,15.37 L97.93,15.37 L97.93,18.22 C97.5499981,18.486668 97.0800028,18.7066658 96.52,18.88 C95.9599972,19.0533342 95.4300025,19.14 94.93,19.14 C94.2166631,19.14 93.5733362,18.9816682 93,18.665 C92.4266638,18.3483317 91.9766683,17.9133361 91.65,17.36 C91.3233317,16.8066639 91.16,16.1833368 91.16,15.49 C91.16,14.8033299 91.3283316,14.1833361 91.665,13.63 C92.0016684,13.0766639 92.4683304,12.6433349 93.065,12.33 C93.6616696,12.0166651 94.3299963,11.86 95.07,11.86 C95.603336,11.86 96.136664,11.9566657 96.67,12.15 C97.203336,12.3433343 97.6566648,12.606665 98.03,12.94 L96.85,14.36 C96.6099988,14.1266655 96.3283349,13.9400007 96.005,13.8 C95.681665,13.6599993 95.3666682,13.59 95.06,13.59 C94.726665,13.59 94.4250014,13.6733325 94.155,13.84 C93.8849986,14.0066675 93.6733341,14.2349986 93.52,14.525 C93.3666659,14.8150015 93.29,15.1366649 93.29,15.49 C93.29,15.8500018 93.3683325,16.1766652 93.525,16.47 C93.6816674,16.7633348 93.8966653,16.9933325 94.17,17.16 C94.4433347,17.3266675 94.746665,17.41 95.08,17.41 C95.3800015,17.41 95.7333313,17.3133343 96.14,17.12 L96.14,15.37 Z M98.96,11.99 L101.04,11.99 L101.04,19 L98.96,19 L98.96,11.99 Z M105.29,11.99 C106.03667,11.99 106.694997,12.1349985 107.265,12.425 C107.835003,12.7150014 108.276665,13.1249974 108.59,13.655 C108.903335,14.1850027 109.06,14.7966632 109.06,15.49 C109.06,16.1833368 108.900002,16.796664 108.58,17.33 C108.259998,17.863336 107.810003,18.2749985 107.23,18.565 C106.649997,18.8550014 105.980004,19 105.22,19 L102.22,19 L102.22,11.99 L105.29,11.99 Z M105.35,17.37 C105.823336,17.37 106.206665,17.2000017 106.5,16.86 C106.793335,16.5199983 106.94,16.0700028 106.94,15.51 C106.94,14.9499972 106.783335,14.4966684 106.47,14.15 C106.156665,13.8033316 105.750003,13.63 105.25,13.63 L104.3,13.63 L104.3,17.37 L105.35,17.37 Z M113.2,11.86 C113.920004,11.86 114.571664,12.0166651 115.155,12.33 C115.738336,12.6433349 116.194998,13.0749973 116.525,13.625 C116.855002,14.1750028 117.02,14.7933299 117.02,15.48 C117.02,16.1733368 116.855002,16.7983305 116.525,17.355 C116.194998,17.9116694 115.738336,18.3483317 115.155,18.665 C114.571664,18.9816682 113.920004,19.14 113.2,19.14 C112.47333,19.14 111.820003,18.9816682 111.24,18.665 C110.659997,18.3483317 110.205002,17.9116694 109.875,17.355 C109.544998,16.7983305 109.38,16.1733368 109.38,15.48 C109.38,14.7933299 109.544998,14.1750028 109.875,13.625 C110.205002,13.0749973 110.659997,12.6433349 111.24,12.33 C111.820003,12.0166651 112.47333,11.86 113.2,11.86 Z M113.23,13.59 C112.923332,13.59 112.638335,13.6733325 112.375,13.84 C112.111665,14.0066675 111.901667,14.2349986 111.745,14.525 C111.588333,14.8150015 111.51,15.1366649 111.51,15.49 C111.51,15.8433351 111.588333,16.1666652 111.745,16.46 C111.901667,16.7533348 112.111665,16.9849992 112.375,17.155 C112.638335,17.3250009 112.923332,17.41 113.23,17.41 C113.530002,17.41 113.808332,17.3250009 114.065,17.155 C114.321668,16.9849992 114.523333,16.7550015 114.67,16.465 C114.816667,16.1749985 114.89,15.8500018 114.89,15.49 C114.89,15.1366649 114.816667,14.8150015 114.67,14.525 C114.523333,14.2349986 114.323335,14.0066675 114.07,13.84 C113.816665,13.6733325 113.536668,13.59 113.23,13.59 Z"></path>
                                </g>
                            </g>
                        </g>
                    </g>
                </g>
            </g>
        </g>
    </g>
</svg>