<svg viewBox="0 0 117 30" version="1.1" xmlns:xlink="http://www.w3.org/1999/xlink" xmlns="http://www.w3.org/2000/svg" data-name="Camada 1" id="Camada_1">
  <defs>
    <style>
      .cls-1 {
        fill: #02793e;
      }

      .cls-1, .cls-2 {
        fill-rule: evenodd;
      }

      .cls-1, .cls-2, .cls-3, .cls-4, .cls-5, .cls-6 {
        stroke-width: 0px;
      }

      .cls-2 {
        fill: #a4c929;
      }

      .cls-3 {
        fill: url(#Gradiente_sem_nome);
        isolation: isolate;
        opacity: .5;
      }

      .cls-4 {
        fill: #54595f;
      }

      .cls-5 {
        fill: #adc73e;
      }

      .cls-6 {
        fill: #fff;
      }
    </style>
    <linearGradient gradientUnits="userSpaceOnUse" gradientTransform="translate(0 -982)" y2="996.5" x2="25.9" y1="1011" x1="19.2" data-name="Gradiente sem nome" id="Gradiente_sem_nome">
      <stop stop-color="#000" offset="0"></stop>
      <stop stop-opacity="0" stop-color="#000" offset="1"></stop>
    </linearGradient>
  </defs>
  <path d="M23.8,29.7c8.3,0,15-6.6,15-14.7S32.1.3,23.8.3s-15,6.6-15,14.7,6.7,14.7,15,14.7Z" class="cls-5"></path>
  <path d="M31.5,13.1l-7.7,7.7c-1.1,1-2.9,1-3.9,0l-1.9-1.9,9.7-9.5c1.1-1,2.9-1,3.9,0,1.1,1,1.1,2.7,0,3.7Z" class="cls-6"></path>
  <path d="M25.7,18.8l3.7-3.7-3.9-3.8-3.7,3.7,3.9,3.8Z" class="cls-3"></path>
  <path d="M27.7,16.9l-3.9,3.8c-1.1,1-2.9,1-3.9,0l-3.9-3.8c-1.1-1-1.1-2.8,0-3.8.6-.6,1.3-.8,1.9-.8s1.3.2,1.9.8l1.9,1.9,1.9,1.9c1.1,1,2.9,1,3.9,0Z" class="cls-6"></path>
  <path d="M45.3,19.1c0-.4,0-.7-.1-.8-.1-.2-.4-.3-.6-.3h-.1l-.3,2.2c.4,0,.6-.1.8-.3s.3-.5.4-.8h0ZM47.4,20.3c-.3.4-.7.7-1.3.9l1.3,4.1h-2.7l-.7-3.6-.5,3.6h-2.6l1.2-9.3h3c1,0,1.8.2,2.3.8.5.5.7,1.2.6,2.1,0,.6-.2,1-.6,1.4h0ZM51.4,21.2c0-.4,0-.7,0-.8-.1-.2-.2-.3-.5-.3s-.4.1-.5.3-.2.5-.4.8h1.4ZM53,19.4c.4.6.5,1.4.4,2.4,0,.1,0,.2,0,.3,0,0,0,.1,0,.2h-3.4c0,.6,0,.9,0,1.1s.2.3.5.3.3,0,.5-.2.2-.3.3-.6h2c-.2.8-.6,1.4-1.1,1.8-.6.5-1.2.7-2,.7s-1.6-.3-2-.9-.6-1.4-.4-2.5c.1-1.1.5-1.9,1.1-2.6.6-.6,1.3-.9,2.2-.9s1.7.3,2.1.8h0ZM57.2,25.2c-.2.1-.4.2-.6.2-.2,0-.5,0-.7,0-.8,0-1.4-.3-1.9-.9-.4-.6-.5-1.5-.4-2.5.1-1,.5-1.9,1.1-2.5.6-.6,1.3-.9,2.1-.9s.4,0,.6,0c.2,0,.4.1.5.2l-.2,2c-.1-.1-.3-.1-.5-.1s-.5.1-.6.3-.3.6-.4,1c0,.4,0,.7,0,.9.1.2.3.3.6.3s.1,0,.2,0c.1,0,.2,0,.3-.1l-.3,2h0ZM57.7,25.3l1.3-10.1h2.4l-1.3,10.1h-2.4ZM64.7,22c0-.5,0-.8,0-1s-.2-.3-.4-.3-.4.1-.5.3c-.1.2-.2.6-.3,1s0,.8,0,1,.2.3.4.3.4-.1.5-.3.2-.6.3-1h0ZM65.2,18.8h2.4l-.8,6.5h-2.4v-.7c-.2.3-.4.6-.7.7s-.5.2-.8.2c-.6,0-1.1-.3-1.4-.9s-.4-1.5-.2-2.5c.1-1.1.4-1.9.9-2.5.4-.6,1-.9,1.7-.9s.6,0,.8.2c.2.1.4.4.6.7v-.7c.1,0,0,0,0,0ZM67.4,25.3l.8-6.5h2.3v1c.1-.4.4-.7.7-.8s.7-.3,1.1-.3.7.1.9.3.4.5.4.8c.2-.4.5-.7.8-.8.3-.2.7-.3,1.1-.3s.8.1,1.1.5.3.7.2,1.3l-.6,4.9h-2.4l.5-3.8c0-.2,0-.3,0-.5,0-.1-.2-.1-.3-.1s-.1,0-.2,0c0,0-.1,0-.1.1-.1.1-.1.3-.2.5l-.5,3.7h-2.3l.5-3.8c0-.2,0-.3,0-.5,0-.1-.2-.1-.3-.1s-.1,0-.2,0c0,0-.1,0-.1.1-.1.1-.1.3-.2.5l-.5,3.7h-2.3ZM80.8,21.2c0-.4,0-.7,0-.8-.1-.2-.2-.3-.5-.3s-.4.1-.5.3-.2.5-.4.8h1.4ZM82.4,19.4c.4.6.5,1.4.4,2.4,0,.1,0,.2,0,.3,0,0,0,.1,0,.2h-3.4c0,.6,0,.9,0,1.1s.2.3.5.3.3,0,.5-.2c.1-.1.2-.3.3-.6h2c-.2.8-.6,1.4-1.1,1.8-.6.5-1.2.7-2,.7s-1.6-.3-2-.9-.6-1.4-.4-2.5c.1-1.1.5-1.9,1.1-2.6.6-.6,1.3-.9,2.2-.9s1.7.3,2.1.8h0Z" class="cls-2"></path>
  <path d="M86.3,22.1h1v-3.4c0,0-1,3.4-1,3.4ZM89,16l.8,9.3h-2.5v-1.4h-1.6l-.4,1.4h-2.5l3.2-9.3h2.9ZM94.7,20.6c.1-1,.1-1.6,0-2,0-.3-.3-.5-.6-.5s-.6.2-.7.5-.3,1-.5,2c-.1,1-.1,1.6,0,2,0,.3.3.5.6.5s.6-.2.7-.5.3-1,.5-2h0ZM96.8,17.1c.5.8.6,2,.4,3.6-.1.9-.3,1.7-.6,2.3-.3.6-.7,1.2-1.1,1.7l1,1.2-2.2,1-.8-1.3h-.3c-1.1,0-1.9-.4-2.4-1.2s-.6-2-.5-3.6c.2-1.5.7-2.7,1.4-3.6.7-.8,1.6-1.3,2.7-1.3s1.9.4,2.4,1.2h0ZM97.6,22l.8-6h2.6l-.8,6.2c0,.3,0,.5,0,.6,0,.1.2.2.4.2s.4,0,.5-.2c.1-.1.2-.3.2-.6l.8-6.2h2.6l-.8,6c-.1,1.2-.5,2.1-1.1,2.7s-1.4.8-2.5.8-1.9-.3-2.3-.8-.6-1.5-.4-2.7h0ZM104.4,25.3l1.2-9.3h2.6l-1.2,9.3h-2.6Z" class="cls-1"></path>
  <path d="M46.1,3.8h.9l-2.6,7.2h-.8l-2.6-7.2h.9l1.7,4.6c.2.5.4,1,.5,1.6.1-.5.3-1.1.5-1.6l1.7-4.6h0ZM50.1,11.1c-.8,0-1.4-.2-1.9-.7-.5-.5-.7-1.1-.7-2s.2-1.6.6-2.1,1-.8,1.8-.8,1.2.2,1.6.7.6,1,.6,1.8v.5h-3.8c0,.6.2,1.1.5,1.4.3.3.7.5,1.3.5s1.2-.1,1.8-.3v.7c-.3.1-.6.2-.8.3-.2,0-.6,0-1,0h0ZM49.9,6.2c-.4,0-.8.1-1.1.4-.2.3-.4.7-.5,1.2h2.9c0-.5-.1-.9-.4-1.2s-.6-.4-1-.4ZM56.1,5.5c.2,0,.5,0,.7,0v.8c-.3,0-.5,0-.7,0-.5,0-.8.2-1.1.5-.3.3-.5.8-.5,1.3v2.9h-.8v-5.4h.7v1h.1c.2-.3.5-.6.7-.8s.6-.3,1-.3h0ZM58.6,11h-.8v-5.4h.8v5.4ZM57.7,4.2c0-.2,0-.3.1-.4.1-.1.2-.1.4-.1s.2,0,.4.1.1.2.1.4,0,.3-.1.4c-.1.1-.2.1-.4.1s-.2,0-.4-.1-.1-.2-.1-.4ZM62.8,6.3h-1.4v4.7h-.8v-4.7h-1v-.4l1-.3v-.3c0-1.3.6-2,1.8-2s.6,0,1,.2l-.2.7c-.3-.1-.6-.1-.8-.1s-.5.1-.7.3c-.1.2-.2.5-.2,1v.3h1.4v.6h0ZM64.6,11h-.8v-5.4h.8v5.4ZM63.8,4.2c0-.2,0-.3.1-.4.1-.1.2-.1.4-.1s.2,0,.4.1.1.2.1.4,0,.3-.1.4c-.1.1-.2.1-.4.1s-.2,0-.4-.1-.1-.2-.1-.4ZM68.6,11.1c-.8,0-1.4-.2-1.8-.7-.4-.5-.6-1.1-.6-2s.2-1.6.7-2.1c.5-.5,1.1-.7,1.9-.7s.5,0,.8,0,.5.1.6.2l-.2.7c-.2,0-.4-.1-.6-.2-.2,0-.4,0-.6,0-1.1,0-1.7.7-1.7,2.1s.1,1.2.4,1.5c.3.3.7.5,1.2.5s.9-.1,1.4-.3v.7c-.4.2-.8.3-1.4.3h0ZM74.6,11l-.2-.8h0c-.3.3-.5.6-.8.7-.3.1-.6.2-1,.2s-1-.1-1.3-.4c-.3-.3-.5-.7-.5-1.2,0-1.1.9-1.7,2.6-1.7h.9v-.3c0-.4-.1-.7-.3-.9s-.5-.3-.9-.3-1,.1-1.6.4l-.2-.6c.3-.1.6-.2.9-.3.3,0,.6-.1,1-.1.7,0,1.1.1,1.4.4.3.3.5.7.5,1.4v3.7h-.6,0ZM72.7,10.4c.5,0,.9-.1,1.2-.4.3-.3.5-.7.5-1.2v-.5h-.8c-.7,0-1.1.2-1.4.3-.3.2-.4.5-.4.8s.1.5.3.7.4.2.8.2h0ZM80.7,10.3h0c-.4.6-1,.8-1.7.8s-1.3-.2-1.7-.7c-.4-.5-.6-1.2-.6-2s.2-1.6.6-2.1,1-.7,1.7-.7,1.3.3,1.7.8h0v-.8c0,0,0-2.2,0-2.2h.8v7.6h-.7v-.7ZM79,10.4c.6,0,1-.1,1.2-.5.2-.3.4-.8.4-1.5v-.2c0-.8-.1-1.3-.4-1.6-.2-.3-.7-.5-1.2-.5s-.8.2-1.1.6c-.2.4-.4.9-.4,1.6s.1,1.2.4,1.6c.2.3.6.5,1.1.5ZM86.6,11l-.2-.8h0c-.3.3-.5.6-.8.7-.3.1-.6.2-1,.2s-1-.1-1.3-.4c-.3-.3-.5-.7-.5-1.2,0-1.1.9-1.7,2.6-1.7h.9v-.3c0-.4-.1-.7-.3-.9s-.5-.3-.9-.3-1,.1-1.6.4l-.2-.6c.3-.1.6-.2.9-.3.3,0,.6-.1,1-.1.7,0,1.1.1,1.4.4.3.3.5.7.5,1.4v3.7h-.6,0ZM84.7,10.4c.5,0,.9-.1,1.2-.4.3-.3.5-.7.5-1.2v-.5h-.8c-.7,0-1.1.2-1.4.3s-.4.5-.4.8.1.5.3.7.4.2.8.2h0ZM94.1,11.1c-.4,0-.7,0-1-.2-.3-.1-.5-.3-.7-.6h0c0,.3,0,.6,0,.9v2.2h-.8v-7.8h.7v.7h.1c.2-.3.5-.5.7-.6.3-.1.6-.2,1-.2.7,0,1.3.2,1.7.7.4.5.6,1.2.6,2s-.2,1.6-.6,2-1,.7-1.7.7h0ZM94,6.2c-.6,0-1,.1-1.2.5s-.4.8-.4,1.5v.2c0,.8.1,1.3.4,1.6.2.3.7.5,1.2.5s.8-.2,1.1-.6c.3-.4.4-.9.4-1.6s-.1-1.2-.4-1.5c-.3-.3-.6-.6-1.1-.6ZM102.5,8.3c0,.9-.2,1.6-.7,2s-1.1.7-1.9.7-.9-.1-1.3-.3-.7-.6-.9-1-.3-.9-.3-1.5c0-.9.2-1.6.7-2s1.1-.7,1.9-.7,1.4.2,1.8.8c.5.5.7,1.2.7,2ZM98.4,8.3c0,.7.1,1.2.4,1.6.3.3.7.6,1.2.6s1-.2,1.2-.5.4-.9.4-1.6-.1-1.2-.4-1.6c-.3-.3-.7-.5-1.2-.5s-1,.2-1.2.5-.4.9-.4,1.6h0ZM106.5,5.5c.2,0,.5,0,.7,0v.8c-.3,0-.5,0-.7,0-.5,0-.8.2-1.1.5-.3.3-.5.8-.5,1.3v2.9h-.8v-5.4h.7v1h.1c.2-.3.5-.6.7-.8.3-.2.6-.3,1-.3h0Z" class="cls-4"></path>
</svg>